<?xml version="1.0" standalone="no"?>
<!DOCTYPE svg PUBLIC "-//W3C//DTD SVG 1.1//EN" "http://www.w3.org/Graphics/SVG/1.1/DTD/svg11.dtd" >
<svg xmlns="http://www.w3.org/2000/svg">
<metadata>
Created by FontForge 20120731 at Tue Jan  3 14:25:47 2017
 By admin
</metadata>
<defs>
<font id="iconfont" horiz-adv-x="1024" >
  <font-face 
    font-family="iconfont"
    font-weight="500"
    font-stretch="normal"
    units-per-em="1024"
    panose-1="2 0 6 3 0 0 0 0 0 0"
    ascent="896"
    descent="-128"
    x-height="792"
    bbox="-0.514286 -224 2290.64 896"
    underline-thickness="0"
    underline-position="0"
    unicode-range="U+0078-E682"
  />
<missing-glyph 
 />
    <glyph glyph-name=".notdef" 
 />
    <glyph glyph-name=".notdef" 
 />
    <glyph glyph-name=".null" horiz-adv-x="0" 
 />
    <glyph glyph-name="nonmarkingreturn" horiz-adv-x="341" 
 />
    <glyph glyph-name="glyph3" unicode="x" horiz-adv-x="1001" 
d="M281 543q-27 -1 -53 -1h-83q-18 0 -36.5 -6t-32.5 -18.5t-23 -32t-9 -45.5v-76h912v41q0 16 -0.5 30t-0.5 18q0 13 -5 29t-17 29.5t-31.5 22.5t-49.5 9h-133v-97h-438v97zM955 310v-52q0 -23 0.5 -52t0.5 -58t-10.5 -47.5t-26 -30t-33 -16t-31.5 -4.5q-14 -1 -29.5 -0.5
t-29.5 0.5h-32l-45 128h-439l-44 -128h-29h-34q-20 0 -45 1q-25 0 -41 9.5t-25.5 23t-13.5 29.5t-4 30v167h911zM163 247q-12 0 -21 -8.5t-9 -21.5t9 -21.5t21 -8.5q13 0 22 8.5t9 21.5t-9 21.5t-22 8.5zM316 123q-8 -26 -14 -48q-5 -19 -10.5 -37t-7.5 -25t-3 -15t1 -14.5
t9.5 -10.5t21.5 -4h37h67h81h80h64h36q23 0 34 12t2 38q-5 13 -9.5 30.5t-9.5 34.5q-5 19 -11 39h-368zM336 498v228q0 11 2.5 23t10 21.5t20.5 15.5t34 6h188q31 0 51.5 -14.5t20.5 -52.5v-227h-327z" />
    <glyph glyph-name="dingbu" unicode="&#xe600;" 
d="M889 461l-365 365q-6 6 -13.5 6t-13.5 -6l-365 -365q-12 -12 -11.5 -29.5t12.5 -29.5t29 -12t29 12l278 278v-604q0 -17 12 -29t29 -12t29.5 12t12.5 29v604l278 -278q12 -12 29 -12t29 12t12.5 29.5t-11.5 29.5z" />
    <glyph glyph-name="QQ" unicode="&#xe617;" 
d="M971 143l-2 18l-3 17l-3 9l-2 9l-3 9l-4 10l-3 10l-4 9l-8 16l-6 14l-7 13l-5 11l-7 11l-5 9l-10 15l-12 19l-3 5l-1 2v1l2 7l3 6l2 11l2 6v6v5v5v6l-1 4l-2 10l-2 9l-3 8l-3 8l-4 7l-3 7l-3 6l-6 9l-2 3v2l-3 18l-1 11l-2 14l-3 15l-4 17l-3 9l-2 8l-3 9l-3 10l-3 9
l-4 10l-8 19l-5 9l-6 10l-5 9l-6 10l-7 10l-7 8l-8 10l-8 8l-8 8l-9 9l-5 3l-5 4l-11 7l-12 8l-12 7l-13 7l-13 6l-13 6l-14 4l-15 4l-13 4l-15 3l-13 4l-15 1l-14 2l-15 2h-15h-14h-14l-14 -1l-14 -2l-14 -2l-13 -2l-14 -3l-13 -3l-13 -4l-12 -4l-12 -4l-12 -6l-12 -5
l-10 -6l-10 -6l-10 -7l-10 -8l-8 -7l-12 -12l-10 -10l-10 -11l-9 -11l-9 -11l-7 -10l-7 -11l-4 -5l-3 -6l-7 -10l-5 -10l-5 -10l-4 -10l-4 -9l-3 -9l-3 -9l-4 -8l-4 -16l-3 -15l-1 -12l-2 -11v-8v-7v-6l-3 -3l-3 -4l-2 -4l-2 -4l-2 -9l-3 -9v-7l-1 -6v-6l-6 -8l-4 -9l-3 -8
l-2 -7l-2 -7l-2 -6v-6v-6v-5l1 -4l2 -7l1 -6l-3 -3l-9 -6l-12 -11l-7 -7l-7 -6l-5 -5l-4 -5l-9 -9l-8 -10l-7 -8l-8 -11l-7 -11l-7 -12l-7 -11l-5 -11l-5 -11l-4 -10l-4 -11l-3 -11l-3 -11l-3 -10l-2 -10l-1 -9l-2 -10l-1 -18v-17v-7l1 -7l2 -13l1 -6l2 -5l2 -6l1 -3l3 -7
l2 -2l2 -3h1h1h1h7l7 2l7 3l6 4l6 4l5 5l6 5l5 6l5 6l4 6l4 4l2 6l5 8l2 4l1 2v3l1 2h1l2 1h1v-1h1h1l3 -12l2 -10l4 -10l4 -9l4 -9l5 -8l4 -9l4 -7l5 -7l3 -6l10 -12l9 -11l8 -8l8 -7l7 -6l11 -10l4 -2l2 -2v-1l-1 -1h-1h-2l-8 -1l-7 -1l-6 -1l-7 -1l-5 -2l-6 -2l-5 -2
l-4 -3l-5 -1l-3 -3l-3 -2l-4 -3l-4 -5l-2 -3l-2 -2l-3 -6l-2 -5l-1 -5l-1 -4v-6v-3l-1 -4v-4l-1 -4v-3l1 -4l1 -4l2 -7l2 -3l2 -3l2 -3l3 -3l3 -3l2 -3l7 -5l8 -4l8 -5l9 -3l9 -4l11 -2l10 -4l11 -2l12 -2l11 -2l12 -1l24 -3h24h23h10h10h11l9 1l9 1l8 1l13 2l9 3l9 2l17 7
l8 3l7 3l12 7l10 6l8 5l6 5l9 -1l7 -1l14 -1h6h6l4 -1l4 -1l7 -3l8 -2l14 -5l15 -5l14 -4l14 -3l15 -4l15 -2l15 -2l14 -2l14 -1l15 -1h13h14h13l13 1l13 1l12 2l11 3l11 2l11 3l5 1l5 2l9 3l8 4l8 4l8 4l6 5l3 3l3 4l4 4l4 6l1 3l1 3l2 3l1 3v4l1 3l-1 5l-1 4l-2 5l-1 4
l-3 5l-3 5l-3 3l-4 4l-9 7l-10 8l-10 5l-10 6l-23 12l-6 3l-2 2l-1 1l12 11l5 6l4 5l8 12l7 11l6 11l6 10l8 20l7 16l4 12l2 4l2 3l2 2h1h1l6 -12l5 -12l4 -7l4 -5l4 -7l5 -7l4 -5l3 -2l2 -3l2 -1l3 -2l4 -2l3 -1h2h2l2 1l4 1l3 2l3 2l3 3l3 4l2 3l3 5l2 3l2 6l2 4l3 11
l2 12l2 14l1 8v6v7v9z" />
    <glyph glyph-name="icon" unicode="&#xe62a;" 
d="M828 426q0 87 -43 160.5t-116.5 116.5t-160.5 43t-160.5 -43t-116 -116.5t-42.5 -160.5q0 -95 52 -174h-1l240 -383v0q8 -18 28 -18t29 18v0l239 383v0q52 79 52 174v0zM508 572q61 0 103.5 -42.5t42.5 -103t-42.5 -103t-103 -42.5t-103.5 42.5t-43 103t43 103t103 42.5
v0zM508 572z" />
    <glyph glyph-name="purse" unicode="&#xe60e;" 
d="M628 384l-90 -115q-2 -5 -14 -19q-8 -12 -14 -19q-3 5 -9 12q-11 17 -17 24l-93 117h-74l132 -161h-119v-45h146v-77h-146v-45h146v-89h65v89h155v45h-155v77h155v45h-125l135 161h-78zM839 484q-22 19 -61 33.5t-67 26.5t-33 27q-2 4 -4 9q9 1 15 5t6 10t-7 10.5
t-17 4.5h-2q2 12 12.5 28t28.5 48t33 76q-21 9 -51.5 18t-67 16t-68 3.5t-43.5 -20.5q-14 -20 -25.5 -26.5t-21.5 -3t-21 11.5t-27.5 16t-37 12t-53.5 -2.5t-74 -25.5q22 -40 46 -71.5t38 -49t18 -31.5q-21 -1 -21 -14t21 -15q0 -1 -0.5 -2.5l-0.5 -1.5q-5 -16 -34 -28.5
t-70 -28t-65 -35.5q-21 -18 -46 -51.5t-48 -78t-44 -96t-32.5 -105.5t-14.5 -106.5t11.5 -99t43 -82.5t83 -58t128.5 -24q218 -7 246 -7t246 7q74 2 128.5 24t83 58t43 82.5t11.5 99t-14.5 106.5t-32.5 105.5t-44.5 96t-48 78t-45.5 51.5zM732 -164q-91 -2 -140 -2t-64 1
l-15 2q-4 -1 -15.5 -1.5t-64 -1.5t-140.5 2q-72 3 -121 26.5t-71.5 61.5t-30 87t2 101t26.5 104.5t40.5 98t48 80t44.5 51.5q15 13 48 25.5t60 22.5t49 33.5t24 58.5q1 2 1 3v1q-17 1 -17 12t17 13q-3 13 -32.5 52.5t-51.5 81.5q26 4 46.5 -0.5t31 -14.5t21.5 -20.5t20 -18
t25.5 -7t38.5 12.5q25 32 64.5 47.5t81.5 0.5q-9 -29 -21 -58t-19 -46.5t-8 -29.5q22 1 22 -13q0 -11 -18 -12q1 -3 3 -8q-2 -29 19 -51t48.5 -33.5t60.5 -25.5t47 -26q21 -17 45 -51.5t47.5 -80t40.5 -98t26.5 -104.5t2 -101t-29.5 -87t-71.5 -61.5t-121.5 -26.5z" />
    <glyph glyph-name="yanjing" unicode="&#xe612;" 
d="M511.5 542q125.5 0 228.5 -66.5t155 -175.5h67q-55 135 -177.5 219t-273 84t-273 -84t-177.5 -219h67q52 109 155 175.5t228.5 66.5zM511.5 57q-125.5 0 -228.5 66.5t-155 176.5h-67q55 -136 177.5 -220t273 -84t273 84t177.5 220h-67q-52 -110 -155 -176.5t-228.5 -66.5
zM350 300q0 -67 47 -114.5t114.5 -47.5t114.5 47.5t47 114.5t-47 114t-114.5 47t-114.5 -47t-47 -114zM613 299.5q0 -41.5 -30 -71.5t-71.5 -30t-71.5 30t-30 71.5t30 71.5t71.5 30t71.5 -30t30 -71.5z" />
    <glyph glyph-name="icon4" unicode="&#xe601;" 
d="M515 896l-414 -134l2 -521l1 -6q19 -89 96 -166q61 -61 275 -176q19 -10 22 -12l15 -8l19 9q37 19 80.5 42t114.5 68t103 77q36 35 60 78.5t29 60t7 27.5l3 527l-413 134v0zM862 244q-17 -69 -78 -130q-63 -64 -271 -169l-8 4q-205 110 -260 165q-61 61 -78 130l-2 472
l350 113l349 -113l-2 -472v0zM355 624h75v-427h-75v427v0v0zM585 351h-192q-16 0 -27 11t-11 26.5t11 26.5t27 11h192q16 0 26.5 -11t10.5 -26.5t-10.5 -26.5t-26.5 -11v0v0zM585 565h-278q-15 0 -26 11t-11 26.5t11 26.5t26 11h278q16 0 26.5 -11t10.5 -26.5t-10.5 -26.5
t-26.5 -11v0v0zM478 181h-171q-15 0 -26 11t-11 26t11 26t26 11h171q16 0 27 -11t10.5 -26t-11 -26t-26.5 -11v0v0zM735 181h-104q4 7 10 13t8.5 10.5t2.5 13.5q0 8 -4.5 18.5t-4.5 14.5t9 4h83q15 0 26 -11t11 -26t-11 -26t-26 -11v0v0zM631 181l-120 188l63 40l120 -187
l-63 -41v0zM580 351q-16 0 -26.5 11t-10.5 26.5t10.5 26.5t26.5 11q29 0 49 20.5t20 49t-20 49t-49 20.5q-16 0 -26.5 11t-10.5 26.5t10.5 26.5t26.5 11q60 0 102 -42.5t42 -102t-42 -102t-102 -42.5v0v0z" />
    <glyph glyph-name="guanbi" unicode="&#xe618;" 
d="M873 140v0v0v0zM928 384q0 113 -56 208.5t-151.5 151.5t-208.5 56t-208.5 -56t-151.5 -151.5t-56 -208.5t56 -208.5t151.5 -151.5t208.5 -56t208.5 56t151.5 151.5t56 208.5zM512 28q-97 0 -179 47.5t-129.5 129.5t-47.5 179t47.5 179t129.5 129.5t179 47.5t179 -47.5
t129.5 -129.5t47.5 -179t-47.5 -179t-129.5 -129.5t-179 -47.5zM682 254l-128 129l128 127q9 8 9 20.5t-8.5 21.5t-21 9t-21.5 -9l-128 -127l-127 127q-8 9 -20.5 9t-21 -9t-9 -21t8.5 -21l127 -127l-128 -126q-9 -9 -9 -21t9 -21t21 -9t21 9l128 126l128 -129q9 -9 21.5 -9
t21 8.5t8.5 21t-9 21.5v0z" />
    <glyph glyph-name="youhui" unicode="&#xe602;" 
d="M922 -33h-820q-21 0 -36 15t-15 36v103v25v26v0q0 11 7.5 18.5t18.5 7.5v0l-0.5 1.5l-0.5 1.5q34 8 56 35.5t22 63.5t-22 63.5t-56 35.5l0.5 1.5l0.5 1.5q-11 0 -18.5 7.5t-7.5 18.5v26v25v103q0 21 15 36t36 15h820q21 0 36 -15t15 -36v-103v-25v-26v0q0 -11 -7.5 -18.5
t-18.5 -7.5l0.5 -1.5l0.5 -1.5q-34 -8 -56 -35.5t-22 -63.5t22 -63.5t56 -35.5l-0.5 -1.5l-0.5 -1.5q11 0 18.5 -7.5t7.5 -18.5v0v-26v-25v-103q0 -21 -15 -36t-36 -15v0zM922 155q-46 16 -74.5 56t-28.5 89t28.5 89t74.5 56v111q0 11 -7.5 18.5t-18.5 7.5h-768
q-11 0 -18.5 -7.5t-7.5 -18.5v-111q46 -16 74.5 -56t28.5 -89t-28.5 -89t-74.5 -56v0v-111q0 -11 7.5 -18.5t18.5 -7.5h768q11 0 18.5 7.5t7.5 18.5v111v0zM627 198h-89v-64q0 -6 -4 -9.5t-9 -3.5h-26q-5 0 -9 3.5t-4 9.5v64h-89q-5 0 -9 3.5t-4 8.5v26q0 5 4 9t9 4h89v51
h-89q-5 0 -9 4t-4 9v25q0 6 4 9.5t9 3.5h70l-78 86q-9 9 0 18l16 18q8 9 16 0l90 -99l92 100q8 9 16 0l16 -18q9 -9 0 -18l-79 -87h71q5 0 9 -3.5t4 -9.5v-25q0 -5 -4 -9t-9 -4h-89v-51h89q5 0 9 -4t4 -9v-26q0 -5 -4 -8.5t-9 -3.5v0zM627 198z" />
    <glyph glyph-name="fanhui" unicode="&#xe61a;" horiz-adv-x="1029" 
d="M795 723l-420 -423l420 -422q8 -8 8 -19.5t-9 -20.5l-42 -41q-9 -8 -21 -8t-20 8l-477 480q-10 9 -7 23q-3 14 7 23l477 481q8 8 20 8t21 -8l42 -42q9 -8 9 -19.5t-8 -19.5z" />
    <glyph glyph-name="xitongzengjia" unicode="&#xe614;" 
d="M238 297h557q11 0 19.5 8.5t8.5 20t-8.5 20t-19.5 8.5h-557q-12 0 -20 -8.5t-8 -20t8 -20t20 -8.5v0zM486 604v-557q0 -11 8.5 -19.5t20.5 -8.5t20 8.5t8 19.5v557q0 12 -8 20t-20 8t-20.5 -8t-8.5 -20v0zM512 -169q95 0 182 37t150 100t100 150t37 182t-37 182t-100 150
t-150 100t-182 37t-182 -37t-150 -100t-100 -150t-37 -182t37 -182t100 -150t150 -100t182 -37v0zM512 -112q-112 0 -207 55t-150 150t-55 207t55 207t150 150t207 55t207 -55t150 -150t55 -207t-55 -207t-150 -150t-207 -55v0z" />
    <glyph glyph-name="jian" unicode="&#xe613;" horiz-adv-x="1025" 
d="M512 768q-126 0 -236 -62q-111 -63 -177.5 -174t-66.5 -244v0q0 -97 38 -186t102.5 -153t153 -102t186.5 -38t187 38t153 102t102 153t38 186.5t-38 186.5t-102 153t-153 102t-187 38zM512 -131q-114 0 -211 56t-153 152.5t-56 210.5t56 211t153 153t211 56t211 -56
t153 -153t56 -211t-56 -210.5t-153 -152.5t-211 -56zM218 342h586v-62h-586v62z" />
    <glyph glyph-name="shanchu" unicode="&#xe61d;" 
d="M254 7v5v-5zM614.5 553q-16.5 0 -28.5 -11.5t-12 -28.5l1 -502q0 -17 11.5 -28.5t28 -11.5t28.5 11.5t12 28.5l-1 502q0 17 -11.5 28.5t-28 11.5zM893 672h-319v41q0 17 -11.5 28.5t-28.5 11.5q-11 0 -20 -5q-9 5 -20 5q-17 0 -28.5 -11.5t-11.5 -28.5v-41h-230
q-5 1 -10 1t-10 -1h-73q-17 0 -28.5 -12t-11.5 -28.5t11.5 -28.5t28.5 -12h43v-617v0v-43q0 -33 23.5 -56.5t56.5 -23.5h40v0h441v0h40q33 0 56 23t24 55v584q0 16 -12 28t-28.5 12t-28 -12t-11.5 -28v-510q-1 -44 -17 -57.5t-63 -13.5l42 -1h-455l52 1q-48 0 -63.5 14
t-16.5 61l1 -76h-1v661h237q2 -1 3.5 -1t3.5 1h33q2 -1 3.5 -1t3.5 1h355q17 0 28.5 11.5t11.5 28t-11.5 28.5t-28.5 12zM775 -3v-66v0v66zM414 553q-17 0 -28.5 -11.5t-11.5 -28.5v-502q0 -17 12 -28.5t28.5 -11.5t28 11.5t11.5 28.5v502q0 17 -11.5 28.5t-28.5 11.5z" />
    <glyph glyph-name="fenxiang" unicode="&#xe603;" 
d="M932 315q-14 0 -24 -9.5t-10 -24.5v-245q0 -15 -10.5 -26t-26.5 -11h-709q-15 0 -26 11t-11 26v611q0 16 11 26.5t26 10.5h332q14 1 24 10.5t10 23.5t-10 24t-24 10h-337q-41 0 -70.5 -29.5t-29.5 -70.5v-621q0 -41 29.5 -70.5t70.5 -29.5h719q41 0 70.5 29.5t29.5 70.5
v251q0 14 -10 23.5t-24 9.5zM1006 595v0l-232 233l-8 7l-1 -1q-7 5 -16 5q-15 0 -25.5 -10.5t-10.5 -24.5q0 -10 5 -17l-1 -1l162 -163h-166q-80 -10 -139.5 -36.5t-97.5 -64.5t-63.5 -95t-37.5 -119t-19 -145q0 -15 10.5 -25t24.5 -10q12 0 21.5 7t12.5 18l2 9
q6 79 16.5 133.5t30.5 102.5t50.5 78t77.5 50t112 27h165l-155 -155l-6 -9q-4 -7 -4 -15q0 -15 10.5 -25.5t24.5 -10.5q9 0 17 4l239 238q5 4 5 8t-4 7z" />
    <glyph glyph-name="sousuo" unicode="&#xe604;" 
d="M1014 -67l-326 327q89 107 89 247q0 106 -52 195.5t-141.5 141.5t-195 52t-195 -52t-141.5 -141.5t-52 -195t52 -195t141.5 -141.5t195.5 -52q139 0 247 89l327 -327q10 -9 24.5 -8.5t24.5 10.5t11 24.5t-9 25.5v0v0zM386 185q-88 0 -163 43.5t-118 118.5t-43 163t43 163
t118 118.5t163 43.5t163 -43.5t118.5 -118.5t43.5 -163t-43.5 -163t-118.5 -118.5t-163 -43.5v0v0zM386 185z" />
    <glyph glyph-name="jian1" unicode="&#xe61b;" 
d="M921 263h-818q-15 0 -26 11t-11 26t11 26t26 11h818q16 0 26.5 -11t10.5 -26t-10.5 -26t-26.5 -11v0zM921 263z" />
    <glyph glyph-name="daifahuo" unicode="&#xe60f;" 
d="M872 716h-738q-42 0 -72 -30t-30 -73v-631q0 -43 30 -73t72 -30h738q43 0 73 30t30 73v631q0 43 -30 73t-73 30v0zM867 652q18 0 31 -13t13 -31v-169h-249v213h205v0zM595 652l1 -435l-63 37l-6 3v0q-15 5 -28 -3l-2 -2l-60 -33v433h158v0zM96 608q0 18 13 31t30 13h231
v-213h-274v169v0zM911 -13q0 -18 -13 -31t-31 -13h-728q-17 0 -30 13t-13 31v385h274v-210q0 -17 13.5 -27.5t29.5 -4.5l1 -1l103 57l95 -58q11 -7 25 -3t21 15q5 8 4 18v0v1v213h249v-385v0z" />
    <glyph glyph-name="zengjia" unicode="&#xe61c;" 
d="M920 341h-371v366q0 16 -11.5 28t-28 12t-28 -12t-11.5 -28v-366h-365q-16 0 -28 -11.5t-12 -28t12 -28t28 -11.5h365v-369q0 -17 11.5 -28.5t28 -11.5t28 11.5t11.5 28.5v369h371q16 0 27.5 11.5t11.5 28t-11.5 28t-27.5 11.5z" />
    <glyph glyph-name="wodedingdan03" unicode="&#xe631;" 
d="M1024 595q0 17 -12 29.5t-30 12.5h-770l-22 103q-1 6 -4 11q-4 13 -15 21t-25 8h-104q-18 0 -30 -12t-12 -29.5t12 -30t30 -12.5h72l133 -627q3 -14 13.5 -23t24.5 -10q5 -2 11 -2h543q18 0 30 12t12 29.5t-12 29.5t-30 12h-517l-23 107h564q14 0 26 10q11 7 15 20
l115 314q2 6 2 12q3 7 3 15v0v0zM835 308h-553l-52 245h695l-90 -245v0zM281 -96q0 34 24.5 58.5t59 24.5t59 -24.5t24.5 -59t-24.5 -59t-59 -24.5t-59 24.5t-24.5 59.5v0zM678 -96.5q0 34.5 24.5 59t59 24.5t59 -24.5t24.5 -59t-24.5 -59t-59 -24.5t-59 24.5t-24.5 59z" />
    <glyph glyph-name="xiaomeifenlei" unicode="&#xe605;" 
d="M41 686h219q5 14 18 37t17 30h-254q-10 0 -17 -9.5t-7 -23.5t7 -24t17 -10v0v0zM44 326h242q-20 33 -33 67h-209q-11 0 -18.5 -10t-7.5 -24t7.5 -23.5t18.5 -9.5v0v0zM943 33h-900q-11 0 -18.5 -10t-7.5 -23.5t7.5 -23.5t18.5 -10h900q10 0 17.5 9.5t7.5 23.5t-7.5 24
t-17.5 10v0v0zM964 185l-113 115q95 82 97 212q1 120 -82.5 205.5t-203 86.5t-205 -82.5t-87 -203t82 -205t203.5 -86.5q45 -1 77 5.5t64 25.5l118 -120q7 -7 20.5 -4t21.5 10.5t10.5 20t-3.5 20.5v0v0zM657 295q-92 1 -155.5 66t-62.5 156.5t66 155.5t156.5 63t155 -66.5
t62.5 -156.5t-66 -155t-156 -63v0v0zM657 295z" />
    <glyph glyph-name="daishouhuo" unicode="&#xe610;" horiz-adv-x="1069" 
d="M342 228h-153q-15 0 -26.5 11.5t-11.5 27t11.5 27t26.5 11.5h115v114q0 16 11.5 27.5t27 11.5t27 -11.5t11.5 -27.5v-153q0 -15 -11.5 -26.5t-27.5 -11.5v0v0zM761 120q-55 0 -97.5 -34.5t-54.5 -86.5h-148q-13 52 -55 86.5t-97 34.5q-65 0 -111 -46t-46 -111t46 -111
t111 -46q53 0 94.5 33t55.5 83h151q14 -50 55.5 -82.5t95.5 -32.5q64 0 110 45.5t46 110.5t-46 111t-110 46v0v0zM309 -117q-34 0 -57.5 23.5t-23.5 56.5t23.5 56.5t57 23.5t57 -23.5t23.5 -56.5t-23.5 -56.5t-56.5 -23.5v0v0zM761 -117q-34 0 -57.5 23.5t-23.5 56.5
t23.5 56.5t57 23.5t57 -23.5t23.5 -56.5t-23.5 -56.5t-56.5 -23.5v0v0zM954 801h-555q-39 0 -67 -27.5t-28 -67.5v-110l-232 -117q-3 -1 -5 -3q-67 -47 -67 -133v-385q0 -16 11 -27t27 -11t27 11t11 27v385q0 45 33 69l251 126q1 0 2 1.5t2 1.5q5 4 6 5t4 6t4 7t1 8
q1 0 1.5 2t0.5 3v134q0 8 5.5 13.5t12.5 5.5h555q16 0 27 -11.5t11 -27.5v-725q0 -16 11 -27.5t27 -11.5t27.5 11.5t11.5 27.5v725q0 48 -34 81.5t-81 33.5v0v0z" />
    <glyph glyph-name="x" unicode="&#xe619;" 
d="M512 748q-185 0 -316.5 -131.5t-131.5 -316.5t131.5 -316.5t316.5 -131.5t316.5 131.5t131.5 316.5t-131.5 316.5t-316.5 131.5zM695 162q9 -9 9 -22.5t-9.5 -23t-22.5 -9.5t-23 10l-137 138l-138 -137q-10 -9 -23 -9t-22.5 9.5t-9.5 22.5t10 23l138 136l-138 138
q-9 9 -9 22.5t9.5 23t22.5 9.5t23 -10l137 -138l138 137q10 9 23 9t22.5 -9.5t9.5 -22.5t-10 -23l-138 -136z" />
    <glyph glyph-name="zhaohuo2normal" unicode="&#xe606;" horiz-adv-x="1025" 
d="M1014 660l-519 225q-7 3 -13 0l-472 -213q-10 -4 -10 -15v-529q0 -10 9 -15l490 -234q3 -1 7 -1t7 1l502 245q9 4 9 15v506q0 11 -10 15zM471 -34l-414 198v400l414 -176v-422zM511 457l-427 176q-2 1 -4 1l410 178l438 -184zM967 174l-415 -202v416l415 176v-390z
M126 376l214 -99q5 -4 11 -6q20 -6 34 10q8 10 7 23t-11 22l-214 99q-10 9 -23 7.5t-21.5 -11.5t-7.5 -23t11 -22z" />
    <glyph glyph-name="xiaogougou" unicode="&#xe615;" horiz-adv-x="1030" 
d="M517 812q-104 0 -198.5 -40.5t-163 -109.5t-109.5 -163.5t-41 -198.5t41 -198.5t109.5 -163.5t163 -109.5t198.5 -40.5t198.5 40.5t163.5 109.5t109.5 163.5t40.5 198.5t-40.5 198.5t-109.5 163.5t-163.5 109.5t-198.5 40.5zM486 29l-35 -41l-41 36l-195 184l72 72
l153 -149l333 399l77 -66z" />
    <glyph glyph-name="yanjingkejian" unicode="&#xe61e;" 
d="M647 385q0 -23 -15.5 -39t-37 -16t-37 16t-15.5 39t15.5 39t37.5 16q2 0 5.5 -1t4.5 -1q-42 31 -93 31q-67 0 -114.5 -50t-47.5 -120t47.5 -120t114.5 -50t114.5 50t47.5 120q0 53 -30 97q3 -9 3 -11zM962 315q-29 55 -75 106t-104 92.5t-129 66.5t-142 25t-141.5 -25
t-128.5 -66.5t-104.5 -92.5t-74.5 -106l-9 -16l9 -17q28 -54 74.5 -105.5t104.5 -92.5t128.5 -66t141.5 -25t142 25t129 66t104 92.5t75 105.5l9 17zM512 61q-114 0 -220.5 71t-163.5 167q57 96 163.5 167t221 71t220.5 -71t163 -167q-57 -96 -163.5 -167t-220.5 -71z" />
    <glyph glyph-name="home" unicode="&#xe608;" 
d="M984 481l-402 375q-38 36 -81 36q-44 0 -79 -35l-387 -375q-28 -28 -14 -75q8 -19 24.5 -29.5t37.5 -10.5h54v-383q0 -44 31.5 -75.5t76.5 -31.5h184v312h158v-312h186q44 0 75 31.5t31 75.5v383h56q21 0 38 10.5t25 29.5t4 39.5t-18 34.5v0zM926 425h-105v-441
q0 -20 -14 -34.5t-34 -14.5h-128v264q0 20 -13 34t-32 14h-184q-18 0 -31.5 -14.5t-13.5 -34.5v-263h-126q-20 0 -34.5 14.5t-14.5 34.5l-1 441h-111q-7 0 -10 3.5t3 12.5l388 376q15 16 36 16q23 0 38 -17l403 -375q11 -10 -6 -15q-4 -1 -10 -1z" />
    <glyph glyph-name="shoucang" unicode="&#xe609;" 
d="M779 -103h-5q-21 1 -37 9l-226 111l-228 -111q-10 -5 -25 -7.5t-34.5 1t-32.5 15.5q-19 14 -27.5 36.5t-4.5 45.5v1l47 240l-179 165l-1 1q-17 17 -23 41t1.5 47t26 39t42.5 20l249 45l112 224q11 23 31.5 35.5t45.5 12.5q24 0 45 -13t32 -35l111 -224l249 -44
q25 -3 43.5 -19t25.5 -39q8 -24 2 -48t-23 -41h-1l-179 -167l45 -241q5 -23 -4 -45.5t-28 -36.5q-20 -18 -50 -18zM772 -24q3 -2 7 -2v0l3 2q4 3 3 8l-53 282l210 195q3 4 1 9v0q-1 5 -6 5l-1 1l-289 50l-129 260q-2 4 -7 4t-8 -4l-129 -260l-289 -52q-5 -1 -6 -6h-1
q-1 -5 2 -8l210 -194l-55 -282q0 -5 3 -8l2 -1q5 0 9 1l262 128z" />
    <glyph glyph-name="fenlei" unicode="&#xe60a;" 
d="M64 768h895v-64h-895v64zM64 448h895v-64h-895v64zM64 129h895v-64h-895v64z" />
    <glyph glyph-name="weibiaoti1" unicode="&#xe637;" 
d="M512 -64q-187 0 -317.5 130.5t-130.5 317.5t130.5 317.5t317.5 130.5t317.5 -130.5t130.5 -317.5t-130.5 -317.5t-317.5 -130.5zM512 768q-158 0 -271 -113t-113 -271t113 -271t271 -113t271 113t113 271t-113 271t-271 113zM698 282h-154v-96q0 -10 -9 -18t-23 -8t-23 8
t-9 18v96h-154q-10 0 -17.5 9t-7.5 22.5t7.5 23t17.5 9.5h160v57h-102q-10 0 -18 9t-8 23q0 10 8 18t18 8h77l-90 102q-9 5 -5.5 13.5t18.5 18.5q10 10 21.5 13t16.5 -6l90 -96l90 96q5 9 16.5 6t21.5 -13q21 -21 13 -38l-90 -96h77q10 0 18 -9t8 -23t-8 -23t-18 -9h-96v-58
h160q10 0 18 -9t8 -23q-13 -25 -32 -25z" />
    <glyph glyph-name="dian" unicode="&#xe616;" 
d="M167 384zM65 384.5q0 42.5 30 72.5t72.5 30t72.5 -30t30 -72.5t-30 -73t-72.5 -30.5t-72.5 30.5t-30 73zM512 384zM409 383.5q0 42.5 30 73t73 30.5t73 -30.5t30 -73t-30 -72.5t-73 -30t-73 30t-30 72.5zM857 384zM754 384.5q0 42.5 30 72.5t72.5 30t72.5 -30t30 -72.5
t-30 -73t-72.5 -30.5t-72.5 30.5t-30 73z" />
    <glyph glyph-name="caigoudan" unicode="&#xe60b;" 
d="M766 500h-508q-13 0 -22 9t-9 21.5t9 22t22 9.5h508q13 0 22.5 -9.5t9 -22t-9.5 -21.5t-22 -9zM766 307h-508q-13 0 -22 9t-9 22t9 22t22 9h508q13 0 22.5 -9t9 -22t-9.5 -22t-22 -9zM766 115h-508q-13 0 -22 9t-9 22t9 22t22 9h508q13 0 22.5 -9t9 -22t-9.5 -22t-22 -9z
M842 792h-149q-4 34 -30 58t-62 24h-178q-35 0 -61.5 -24t-30.5 -58h-149q-38 0 -65.5 -27.5t-27.5 -65.5v-727q0 -38 27.5 -65.5t65.5 -27.5h660q38 0 65.5 27.5t27.5 65.5v727q0 38 -27.5 65.5t-65.5 27.5zM423 812h178q13 0 22 -9t9 -22t-9 -22t-22 -9h-178q-13 0 -22 9
t-9 22t9 22t22 9zM873 -28q0 -12 -9 -21.5t-22 -9.5h-660q-13 0 -22 9.5t-9 21.5v727q0 12 9 21.5t22 9.5h163q28 -42 78 -42h178q50 0 78 42h163q13 0 22 -9.5t9 -22.5v-726z" />
    <glyph glyph-name="xiasanjiaoxing-copy" unicode="&#xe61f;" 
d="M260 545q-23 0 -33 -22t7 -39l253 -253q11 -11 25.5 -11t24.5 11l253 253q17 16 7.5 38.5t-32.5 22.5h-505z" />
    <glyph glyph-name="tooth" unicode="&#xe60d;" 
d="M635 661q-8 1 -9 1v1q3 -4 4 -5q1 0 2.5 1t2.5 2zM925 613q-8 87 -60 142.5t-135 67.5q-98 16 -200 -27q-18 -7 -35 0q-77 36 -158 36h-17q-94 -5 -152.5 -59.5t-67.5 -146.5q-15 -145 71 -252q50 -62 57 -137q2 -23 4.5 -72t5.5 -75q6 -57 21 -91q29 -65 104 -62
q51 2 71 71q4 18 8.5 37.5t9 44.5t6.5 38q18 87 22 99q3 10 13.5 20t18.5 10t18.5 -10.5t13.5 -20.5q4 -13 7.5 -29t6.5 -35.5t6 -30.5q2 -11 8 -43t11 -54t13 -43q26 -76 107 -48q72 25 81 118q2 30 5 85.5t5 76.5q6 86 60 151q84 101 71 239zM797 411q-64 -78 -71 -186
q0 -7 -3 -59.5t-6 -80.5q-4 -31 -25 -54q-18 -19 -35.5 -13t-22.5 32q-4 24 -9 69.5t-9 66.5q-7 46 -21 79q-24 58 -82 59q-29 0 -50.5 -14.5t-31.5 -40.5q-13 -35 -30 -120q-3 -17 -6.5 -50.5t-7.5 -50.5q-4 -24 -19 -29.5t-33 10.5q-18 17 -25 44q-2 9 -8 69
q-11 133 -12 137q-9 64 -58 126q-87 110 -48 244q16 54 54 84t94 32q75 4 169 -47q18 -9 38 -18t47.5 -20.5t39.5 -16.5q-31 37 -64 75q44 22 90.5 24t85 -13.5t68 -49t39.5 -77.5q27 -119 -48 -211z" />
    <glyph glyph-name="shoucang1" unicode="&#xe60c;" 
d="M557 32q-19 10 -45 10t-45 -10l-184 -101q-37 -21 -58 -5.5t-14 57.5l35 218q4 21 -4 46.5t-23 40.5l-150 153q-30 30 -21.5 56t50.5 32l204 31q21 3 42.5 19t30.5 35l93 198q18 38 44 38t44 -38l93 -198q9 -19 30.5 -35t42.5 -19l204 -31q42 -6 50.5 -32t-21.5 -56
l-150 -153q-15 -15 -23 -40.5t-4 -46.5l36 -218q7 -42 -14.5 -57.5t-58.5 5.5z" />
    <glyph glyph-name="daipingjia01" unicode="&#xe611;" 
d="M791 538v0h-419v0v0q-9 0 -16 -7t-7 -17q0 -9 7 -16t16 -7v0v0h419v0q10 0 17 7t7 16q0 10 -7 17t-17 7zM791 323v0h-419v0v0q-9 0 -16 -6q-7 -7 -7 -17q0 -9 7 -17q7 -6 16 -6v0v0h419v0q10 0 17 6q7 7 7 17q0 9 -7 17q-7 6 -17 6zM901 756h-66q-8 40 -40.5 66.5
t-73.5 26.5h-604q-48 0 -82.5 -34.5t-34.5 -82.5v-463q0 -48 34.5 -83t82.5 -35h25q9 -40 43 -66.5t78 -26.5h150l113 -113q26 -26 60 -26q25 0 42 16l123 123h150q51 0 87 34.5t36 83.5v462q0 49 -36.5 83.5t-86.5 34.5zM166 711q-26 -32 -26 -73v-440h-23q-29 0 -49.5 21
t-20.5 50v463q0 29 20.5 50t49.5 21h604q22 0 40 -13t26 -34h-524q-41 0 -73 -23q-13 -9 -24 -22zM975 176q0 -29 -22 -50t-52 -21h-169l-137 -137q-3 -3 -9 -3q-14 0 -27 13l-127 127h-169q-25 0 -45 15t-26 37q-3 9 -3 19v462q0 30 22 50.5t52 20.5h622h16q30 0 52 -20.5
t22 -50.5v-462v0z" />
    <glyph glyph-name="caigoudan02" unicode="&#xe638;" 
d="M826 785h-91q0 35 -33.5 62t-78.5 27h-229q-43 0 -77 -27t-34 -62h-58q-53 0 -83.5 -19.5t-30.5 -54.5v-712q0 -39 38 -72t78 -33h601q38 0 62.5 32t24.5 73v712q-3 74 -89 74zM394 829h229q26 0 46.5 -14.5t20.5 -29.5q0 -16 -20 -30.5t-47 -14.5h-229q-26 0 -46.5 14.5
t-20.5 30t20.5 30t46.5 14.5zM868 -1q0 -22 -11 -41t-31 -19h-601q-22 0 -45.5 20.5t-23.5 39.5v712q0 15 23.5 22t47.5 7h76q15 -20 40 -32t53 -12h230q28 0 53 12t40 32h109q26 0 33 -6.5t7 -22.5v-712zM757 518h-490q-10 0 -14.5 -11.5t0 -22.5t14.5 -11h490v45zM757 339
h-490q-10 0 -14.5 -11t0 -22t14.5 -11h490v44zM757 161h-490q-10 0 -14.5 -11t0 -22t14.5 -11h490q10 0 14.5 11t0 22t-14.5 11z" />
    <glyph glyph-name="chiyanshe03" unicode="&#xe607;" 
d="M893 736q-62 86 -182 86q-44 0 -86.5 -10.5t-77.5 -26.5q-72 52 -156 58q-65 4 -119.5 -21.5t-89.5 -77.5q-38 -55 -47 -125t15 -135q2 -8 6 -17t7.5 -15t10.5 -17t10 -15.5t12 -17.5t11 -16q24 -35 33.5 -49.5t21 -41t10.5 -46.5q-6 -90 0 -182q2 -19 7.5 -41.5
t15 -48.5t26.5 -43t37 -17q33 0 64 43q37 48 74 158q12 37 20 55q0 2 4 10q22 58 31 58q3 0 8 -9q21 -29 33 -94l2 -6l4 -16q9 -42 17 -71t21 -59.5t29.5 -46.5t36.5 -16q14 0 31 10q26 17 37 37.5t21 57.5q4 22 14 96q5 46 9 70t14.5 60.5t25.5 61.5q28 47 46 84t32.5 83
t16 85.5t-12 83.5t-43.5 84zM874 517q-1 -10 -4 -20t-5 -17.5t-7.5 -19.5t-7.5 -16.5t-10 -18.5t-9.5 -16t-11 -18t-10.5 -17q-2 -4 -7 -11.5t-7 -11.5q-18 -28 -29 -62t-15 -58t-10 -66q-4 -41 -8 -60q0 -4 -2 -8q-13 -76 -26 -96l-3 2q-17 30 -34 111q-1 7 -4.5 18.5
t-4.5 15.5l-2 7q-5 20 -7.5 29.5t-9.5 31t-13 33t-17 27.5t-22 23t-27 11.5t-35 1.5q-34 -6 -59 -78q-2 -6 -6 -14q-10 -22 -27 -67q-36 -91 -53 -123q-12 -25 -21 -29v0q-3 2 -7 14.5t-8.5 38t-6.5 58.5q-3 86 2 143q2 26 -11 59.5t-24.5 51.5t-36.5 53q-6 10 -18 26
q-12 20 -22.5 39.5t-21 55.5t-10 68t19 69t56.5 65q52 39 109 39q70 0 139 -53q1 -1 4 -3t4 -3q49 -39 80 -92q9 -19 29 -19q21 0 31 19q9 15 -2 30q-34 52 -60 78q43 15 90 15q91 0 142 -58q55 -68 36 -178z" />
    <glyph glyph-name="shouye03" unicode="&#xe62b;" 
d="M887 534l-244 258q-50 43 -113 43q-66 0 -114 -45l-266 -256q-24 -22 -42 -52t-8 -57q16 -37 56 -37h16v-334q0 -53 42.5 -95t94.5 -42h129h21v369h102v-369h170q53 0 85 41.5t32 95.5v334h35q40 0 55 37q9 24 -7.5 54t-43.5 55zM786 429v-375q0 -29 -15 -52.5t-40 -23.5
h-108v369h-226v-20v-349h-88q-26 0 -51 25t-25 51v396h-71q12 24 31 43l266 253q26 27 71 27q39 0 72 -27l244 -258q15 -13 31 -36h-91v-23zM741 -40q-2 0 -5 -1t-5 -1q6 0 10 2zM215 44q0 2 -1 6t-1 6q0 -10 2 -12zM309 -42q-8 0 -12 2q6 -2 12 -2z" />
    <glyph glyph-name="wo03" unicode="&#xe62c;" 
d="M975 -46q-20 131 -105 231t-211 142q65 36 102.5 100.5t37.5 138.5q0 117 -82 199t-199 82t-198.5 -82t-81.5 -199q0 -73 36 -136.5t99 -100.5q-127 -40 -214 -141t-110 -234l-2 -12l66 -11l2 13q24 147 136 243.5t261 96.5t261.5 -96.5t135.5 -243.5l2 -13l66 11z
M727 568.5q0 -87.5 -61.5 -149.5t-149 -62t-149.5 62t-62 149.5t62 149t149.5 61.5t149 -61.5t61.5 -149z" />
    <glyph glyph-name="wo" unicode="&#xe629;" 
d="M970 -128h-68q-8 99 -62 181t-140.5 129.5t-187.5 47.5t-187.5 -47.5t-140.5 -129.5t-62 -181h-68q10 137 93 244.5t210 153.5q-77 42 -123.5 118t-46.5 167q0 88 43.5 163t118.5 118.5t163 43.5t163 -43.5t118.5 -118.5t43.5 -163q0 -91 -46.5 -167t-123.5 -118
q127 -46 210 -153.5t93 -244.5v0zM769 555q0 107 -75 182t-182 75t-182 -75t-75 -182t75 -182.5t182 -75.5t182 75.5t75 182.5v0z" />
    <glyph glyph-name="xiaoshoucuxiao" unicode="&#xe67a;" 
d="M848 417q5 5 5 12v375q0 7 -6 12q-4 5 -11 5h-376q-7 0 -12 -5l-355 -354q-27 -27 -27 -66t27 -66l268 -268q28 -27 66.5 -27t65.5 27zM609.5 720.5q29.5 29.5 71 29.5t71 -29.5t29.5 -71t-29.5 -70.5t-71 -29t-71 29t-29.5 70.5t29.5 71zM439 261l-56 56l-46 -46l-28 29
l46 45l-58 58l23 23l58 -57l31 31l-58 58l23 23l50 -50l43 164l32 -32q-35 -120 -46 -149v-1q12 6 51 18l98 29l31 -31l-164 -43l48 -48l-23 -22l-56 55l-32 -31l56 -56l-23 -23v0zM958 424l-80 367q-1 4 -4 8q1 -28 0.5 -155.5t0.5 -155.5q-2 -14 -0.5 -26t0.5 -27t-6 -26
q-50 -53 -108.5 -111.5t-129.5 -129t-111 -109.5q-20 -28 -54 -39l89 -58q32 -21 70 -12.5t59 40.5l271 421q4 6 3 13z" />
    <glyph glyph-name="cf-c25" unicode="&#xe62f;" 
d="M392 411h-274q-34 0 -61 36.5t-27 74.5v251q0 36 26 62t62 26h274q36 0 62 -26t26 -62v-272q0 -37 -26 -63.5t-62 -26.5v0v0zM413 752q0 17 -11.5 28.5t-28.5 11.5h-237q-16 0 -27 -11.5t-11 -28.5v-237q0 -17 11.5 -28.5t28.5 -11.5h236q17 0 28.5 11.5t11.5 28.5v237
h-1zM909 411h-274q-34 0 -61 36.5t-27 74.5v251q0 36 26 62t62 26h274q36 0 62 -26t26 -62v-272q0 -38 -25.5 -64t-62.5 -26v0v0zM930 752q0 17 -12 28.5t-28 11.5h-236q-16 0 -28 -11.5t-12 -28.5v-237q0 -17 12 -28.5t28 -11.5h237q17 0 28.5 11.5t11.5 28.5v237h-1z
M909 -106h-274q-34 0 -61 36.5t-27 74.5v249q0 36 26 62t62 26h274q36 0 62 -26t26 -62v-272q0 -36 -25.5 -62t-62.5 -26v0v0zM930 235q0 17 -12 28.5t-28 11.5h-236q-16 0 -28 -11.5t-12 -28.5v-237q0 -16 12 -28t28 -12h237q17 0 28.5 12t11.5 28v237h-1zM392 -106h-274
q-34 0 -61 36.5t-27 74.5v249q0 36 26 62t62 26h274q36 0 62 -26t26 -62v-272q0 -36 -26 -62t-62 -26v0v0zM413 235q0 17 -11.5 28.5t-28.5 11.5h-237q-17 0 -28.5 -11.5t-11.5 -28.5v-237q0 -16 11.5 -28t28.5 -12h237q17 0 28.5 12t11.5 28v237zM435 770z" />
    <glyph glyph-name="xiasanjiaoxing-copy-copy" unicode="&#xe620;" 
d="M764 223q23 0 33 22t-7 39l-253 253q-11 11 -25.5 11t-24.5 -11l-253 -253q-17 -16 -7.5 -38.5t32.5 -22.5h505z" />
    <glyph glyph-name="iconfontclose01" unicode="&#xe636;" 
d="M861 826l-349 -349l-349 349q-19 19 -46 19t-46.5 -19.5t-19.5 -46.5t19 -46l349 -349l-349 -349q-19 -19 -19 -46t19.5 -46.5t46.5 -19.5t46 19l349 349l349 -349q19 -19 46 -19t46.5 19.5t19.5 46.5t-19 46l-349 349l349 349q19 19 19 46t-19.5 46.5t-46.5 19.5
t-46 -19v0zM861 826z" />
    <glyph glyph-name="802" unicode="&#xe621;" horiz-adv-x="1750" 
d="M1493 896h256v-256h-256v256zM307 256q-46 -29 -73 -70.5t-27 -91.5q0 -56 42.5 -93.5t106.5 -37.5q62 0 100 34t38 87q0 20 -5.5 37.5t-13.5 31t-24 27t-28 22t-36 19.5t-38 17zM1493 384h-256v256h-256v256h-981v-256v-256v-256v-256h1749v256h-256v256zM355 -94
q-94 0 -155.5 51.5t-61.5 131.5q0 64 36.5 112.5t90.5 78.5v4q-93 63 -93 158q0 76 53 124.5t132 48.5q86 0 136.5 -50.5t50.5 -130.5q0 -49 -28 -93.5t-65 -73.5v-5q117 -67 117 -180q0 -75 -59.5 -125.5t-153.5 -50.5zM1097 539h-313v-242h265v-66h-265v-313h-77v687h390
v-66v0zM402 288q76 63 76 142q0 55 -33 91t-90 36q-48 0 -80 -32t-32 -83q0 -31 12.5 -55.5t37.5 -42.5t49 -30t60 -26z" />
    <glyph glyph-name="702" unicode="&#xe622;" horiz-adv-x="1750" 
d="M1493 896h256v-256h-256v256zM1493 384h-256v256h-256v256h-981v-256v-256v-256v0v-256h1749v256h-256v256zM567 559q-60 -77 -98.5 -149t-60.5 -151.5t-31 -155t-14 -185.5h-80q9 201 52.5 341.5t142.5 279.5h-337v66h426v-46v0zM1097 539h-313v-242h265v-66h-265v-313
h-77v687h390v-66v0z" />
    <glyph glyph-name="602" unicode="&#xe623;" horiz-adv-x="1750" 
d="M1493 896h256v-256h-256v256zM368 286q-80 0 -145 -91q7 -110 46 -169t107 -59q52 0 86 45t34 115q0 74 -32 116.5t-96 42.5zM1493 384h-256v256h-256v256h-981v-256v-256v-256v-256h1749v256h-256v256zM376 -94q-102 0 -164.5 87.5t-62.5 250.5q0 99 20.5 173
t56.5 116.5t79.5 63t95.5 20.5q91 0 156 -68l-43 -48q-45 52 -111 52q-79 0 -129 -69.5t-53 -223.5q33 38 75.5 60.5t83.5 22.5q89 0 139.5 -55t50.5 -161q0 -96 -57 -158.5t-137 -62.5zM1097 539h-313v-242h265v-66h-265v-313h-77v687h390v-66v0z" />
    <glyph glyph-name="502" unicode="&#xe624;" horiz-adv-x="1750" 
d="M1493 896h256v-256h-256v256zM1493 384h-256v256h-256v256h-981v-256v-256v-256v-256h1749v256h-256v256zM339 -94q-126 0 -217 91l38 50q76 -78 172 -78q64 0 107.5 47t43.5 122.5t-40 119t-107 43.5q-33 0 -58.5 -10t-58.5 -32l-42 27l22 319h328v-66h-261l-18 -208
q52 29 107 29q90 0 147.5 -55.5t57.5 -164.5q0 -107 -65.5 -170.5t-155.5 -63.5zM1097 539h-313v-242h265v-66h-265v-313h-77v687h390v-66v0z" />
    <glyph glyph-name="402" unicode="&#xe625;" horiz-adv-x="1750" 
d="M1493 896h256v-256h-256v256zM361 416l-166 -246h220v224q0 54 5 122h-4q-22 -42 -55 -100zM1493 384h-256v256h-256v256h-981v-256v-256v-256v-256h1749v256h-256v256zM581 109h-94v-191h-72v191h-302v50l292 446h82v-435h94v-61zM1097 539h-313v-242h265v-66h-265v-313
h-77v687h390v-66v0z" />
    <glyph glyph-name="3102" unicode="&#xe626;" horiz-adv-x="1750" 
d="M1493 896h256v-256h-256v256zM1493 384h-256v256h-256v256h-981v-256v-256v-256v-256h1749v256h-256v256zM341 -94q-131 0 -217 93l39 50q78 -80 174 -80q63 0 103 36.5t40 97.5q0 142 -217 142v60q101 0 147 37t46 100q0 51 -32.5 82t-87.5 32q-78 -1 -145 -69l-42 49
q89 81 190 82q86 -1 140.5 -46t54.5 -125q0 -62 -33 -104t-90 -63v-4q64 -14 105 -60.5t41 -114.5q0 -89 -61.5 -142t-154.5 -53zM1097 539h-313v-242h265v-66h-265v-313h-77v687h390v-66v0z" />
    <glyph glyph-name="2202" unicode="&#xe627;" horiz-adv-x="1750" 
d="M1493 896h256v-256h-256v256zM1493 384h-256v256h-256v256h-981v-256v-256v-256v-256h1749v256h-256v256zM563 -82h-425v46q164 143 240.5 251.5t76.5 197.5q0 64 -33.5 103t-96.5 39q-77 0 -147 -81l-45 43q45 49 92.5 74.5t107.5 25.5q91 0 144 -54.5t53 -146.5
q0 -98 -70.5 -204.5t-206.5 -233.5q55 5 113 5h197v-65zM1097 539h-313v-242h265v-66h-265v-313h-77v687h390v-66v0z" />
    <glyph glyph-name="302" unicode="&#xe628;" horiz-adv-x="1750" 
d="M1493 384h-256v256h-256v256h-981v-256v-256v-256v-256h1749v256h-256v256zM549 -82h-370v64h154v526h-121v50q86 15 139 47h58v-623h140v-64v0zM1097 539h-313v-242h265v-66h-265v-313h-77v687h390v-66v0zM1493 896h256v-256h-256v256z" />
    <glyph glyph-name="qian" unicode="&#xe635;" 
d="M512.5 831q-90.5 0 -173 -35t-142 -95t-95 -142.5t-35.5 -173t35.5 -173t95 -142t142 -95t173 -35.5t173 35.5t142.5 95t95 142t35 173t-35 173t-95 142.5t-142.5 95t-173 35zM513 -12q-108 0 -200 53.5t-145 145t-53 199.5t53 199.5t145 145t200 53.5t199.5 -53.5
t144.5 -145t53 -199.5t-53 -199.5t-144.5 -145t-199.5 -53.5zM620 619l-70 -130q-28 -53 -35 -71h-1q-19 42 -106 201h-66l124 -213h-102v-47h119v-64h-119v-48h119v-94h59v94h115v48h-115v64h115v47h-99l125 213h-63z" />
    <glyph glyph-name="pingxing01" unicode="&#xe62d;" 
d="M965 419l-172 -148q-17 -16 -13 -40l40 -237q5 -28 -15 -43q-13 -9 -30 -9q-12 0 -23 5l-217 117q-21 11 -42 0l-208 -117q-27 -14 -53 4q-28 21 -24 43l50 242q4 23 -13 40l-181 143q-23 21 -13 50.5t40 34.5l236 41q23 3 34 25l108 229q14 27 45 27t45 -27l104 -229
q11 -22 34 -25l240 -41q31 -5 40.5 -34.5t-12.5 -50.5v0z" />
    <glyph glyph-name="pingxingbanke201" unicode="&#xe62e;" 
d="M965 419q22 21 12.5 50.5t-40.5 34.5l-240 41q-23 3 -34 25l-104 229q-14 27 -45 27q-16 0 -29 -9v0l-1 -1h-1q0 -1 -1 -1v0l-1 -1v0l-1 -1l-1 -1l-1 -1v0v0l-1 -1l-1 -1v0l-1 -1v0v-0.5t-1 -0.5v-0.5v-0.5l-1 -1v0l-4 -6l-72 -153l-36 -76q-1 -1 -1.5 -2.5t-1.5 -2.5
q-2 -3 -5 -6l-4 -4q-10 -8 -22 -10l-147 -26l-89 -15q-30 -5 -40 -34q-2 -8 -2 -16t2 -15t7 -14l6 -6l79 -63l102 -80q13 -13 13 -32v-8l-50 -242q-4 -22 24 -43v0q1 0 2 -1v0h1q0 -1 1 -1l0.5 -0.5t1 -0.5t0.5 -0.5t0.5 -0.5h1t1 -0.5t1 -0.5t1 -0.5l0.5 -0.5h1h1l1 -1h1
q1 0 1 -1h1h1h0.5h1t1.5 -1h0.5h1h1.5v0v0h1h1v0h2v0h2v0v0h3v0h3v0h3v0q2 1 3 1v0q1 0 2 1h1q1 0 2 1h1q1 0 2 1h1q1 1 2 1v0l208 117q2 1 5 2v0q2 1 5 2v0q4 1 7 1h1h0.5h0.5v0h2q11 0 21 -5l217 -117q11 -5 23 -5q17 0 30 9q20 15 15 43l-40 237q-4 24 13 40zM745 225
l41 -236q1 -6 0 -8q0 -1 -2 -2q-4 -3 -9 -3q-3 0 -6 2l-217 117v0v0q-18 9 -38 9v688v0q9 0 14 -8l103 -228l1 -1v0q18 -38 60 -44l239 -42v0h1q9 -1 12 -10q3 -8 -3 -15l-171 -146l-1 -1v-1q-31 -29 -24 -71z" />
    <glyph glyph-name="gengduo" unicode="&#xe630;" 
d="M777 344l-455 -455q-17 -17 -40.5 -17t-40 16.5t-16.5 40t17 40.5l415 415l-415 415q-17 17 -17 40.5t16.5 40t40 16.5t40.5 -17l455 -455q17 -16 17 -40t-17 -40z" />
    <glyph glyph-name="logo02" unicode="&#xe632;" horiz-adv-x="2552" 
d="M861 275v73h-337l10 28h335v66h-310l20 55h-118l-25 -55h-150v-66h123l-112 -251h-32v-53h157l35 94l45 -94q59 2 98.5 10t88.5 25q51 -17 88.5 -25t96.5 -10v60q-78 5 -110 36q76 70 97 107zM461 178l27 73q15 -3 49.5 -26t53.5 -40q-10 -1 -35 -2.5t-54.5 -2.5
t-40.5 -2zM693 215q-13 6 -23 12.5t-28 22.5t-22 20h-125l6 15h260q-6 -14 -28 -36.5t-40 -33.5zM828 735h-339v1h-105q-44 -1 -62 8.5t-38 38.5q-16 -25 -18 -45.5t8.5 -32t25.5 -19.5t33.5 -11.5t30.5 -4.5t19 -1h505q2 36 -8 50q-6 7 -19 11.5t-23 4.5h-10zM286 462h116
v43h352v-43h117v96h-67l23 90h-106l-24 -90h-56l-22 90h-106l22 -90h-83l-23 90h-107l23 -90h-59v-96zM1526 736h-339v0h-105q-44 -1 -62 8.5t-37 38.5q-17 -25 -19 -45.5t8.5 -32t25.5 -19.5t33.5 -11.5t30.5 -4.5t19 0h328v-149h-266l40 103h-116l-72 -164h163l-150 -335
h-40v-53h168l143 388h130v-335h-49v-53h114q25 0 40 13q6 6 9.5 16.5t3.5 17.5l-1 7l2 334h58v61h-58v149h58q2 35 -8 49q-6 7 -19 11.5t-23 4.5zM2044 627h-117l-25 -56h-100l5 98h483q3 36 -8 50q-6 7 -18.5 11.5t-22.5 4.5h-11h-162q-1 21 -6 29q-4 8 -13.5 12t-16.5 5
h-7h-60l-5 -46h-69v1h-104q-44 -1 -62 8.5t-38 38.5q-45 -69 18 -98l-43 -563h-37v-50h42v0h39h20q25 0 40 13q14 13 13 40l20 381h75l-66 -153h221v-87h-221v-66h221l-1 -76v-52h66q25 0 40 13q6 6 9.5 16t3.5 17l-1 8l1 74h143v66h-143v87h143v66h-143v69h-118v-69h-62
l33 87h290v65h-266z" />
    <glyph glyph-name="zhankai03" unicode="&#xe633;" horiz-adv-x="1229" 
d="M1126 643l-537 -538h64q-92 90 -275 269t-276 269q-12 11 -27 12.5t-26.5 -6t-19 -19t-5.5 -26t14 -25.5q93 -90 276 -269t275 -269q13 -13 31.5 -13t32.5 13l537 538q13 11 15 25.5t-5.5 26t-19 19t-26.5 6t-28 -12.5v0z" />
    <glyph glyph-name="shouqi03" unicode="&#xe634;" horiz-adv-x="1229" 
d="M105 128l538 538h-64q92 -90 275 -269t275 -269q12 -12 27.5 -13t26.5 6.5t18.5 18.5t5.5 25.5t-14 26.5q-92 90 -275 269t-275 269q-14 13 -32.5 13t-31.5 -13l-538 -538q-12 -12 -14 -26.5t5.5 -25.5t18.5 -18.5t26.5 -6.5t27.5 13v0z" />
    <glyph glyph-name="fenlei1" unicode="&#xe682;" 
d="M605 679h332q13 0 22 9.5t9 22.5t-9 22t-22 9h-332q-13 0 -22.5 -9t-9.5 -22t9.5 -22.5t22.5 -9.5zM937 559h-332q-13 0 -22.5 -9t-9.5 -22t9.5 -22t22.5 -9h332q13 0 22 9t9 22t-9 22t-22 9zM426 829h-300q-24 0 -41.5 -17.5t-17.5 -41.5v-300q0 -25 17.5 -42.5
t41.5 -17.5h300q25 0 42.5 17.5t17.5 42.5v300q0 24 -17.5 41.5t-42.5 17.5zM426 500q0 -13 -8.5 -21.5t-21.5 -8.5h-240q-12 0 -21 8.5t-9 21.5v240q0 12 9 21t21 9h240q13 0 21.5 -9t8.5 -21v-240zM605 198h332q13 0 22 9t9 22t-9 22.5t-22 9.5h-332q-13 0 -22.5 -9.5
t-9.5 -22.5t9.5 -22t22.5 -9zM937 78h-332q-13 0 -22.5 -9t-9.5 -22t9.5 -22.5t22.5 -9.5h332q13 0 22 9.5t9 22.5t-9 22t-22 9zM426 348h-300q-24 0 -41.5 -17.5t-17.5 -42.5v-300q0 -25 17.5 -42.5t41.5 -17.5h300q25 0 42.5 17.5t17.5 42.5v300q0 25 -17.5 42.5
t-42.5 17.5zM426 18q0 -12 -8.5 -21t-21.5 -9h-240q-12 0 -21 9t-9 21v241q0 12 9 21t21 9h240q13 0 21.5 -9t8.5 -21v-241z" />
    <glyph glyph-name="icon-test1" unicode="&#xe64f;" 
d="M399 -43zM335 -43.5q0 -26.5 18.5 -45.5t45 -19t45.5 19t19 45.5t-19 45.5t-45.5 19t-45 -19t-18.5 -45.5zM777 -43q0 -26 -25.5 -45.5t-53.5 -19.5q-25 0 -37 18t-12 47q0 26 18.5 45t45.5 19t45.5 -19t18.5 -45zM768 66h-433v0q-11 0 -21 7.5t-13 17.5l-195 713h-66
q-15 0 -25 10t-10 24.5t10 24.5t25 10h92v0q11 0 21 -7.5t13 -17.5l195 -713h407q14 0 24.5 -10t10.5 -24.5t-10.5 -24.5t-24.5 -10v0zM821 261h-500q-14 0 -24.5 10t-10.5 24.5t10.5 24.5t24.5 10h477l127 274h-704q-15 0 -25 10t-10 24.5t10 24.5t25 10h758q15 0 25 -10
t10 -24q0 -8 -3 -15l-159 -343q-4 -8 -13 -14t-18 -6z" />
    <glyph glyph-name="zhong" unicode="&#xe650;" 
d="M539 782v79q0 15 -10.5 25t-24.5 10t-24 -10t-10 -25v-79q-115 -8 -210.5 -70t-151 -162.5t-55.5 -216.5q0 -92 36 -175.5t96.5 -144t144 -96t175 -35.5t175 35.5t144 96t96 144t35.5 175.5q0 116 -55 216.5t-150.5 162.5t-210.5 70zM504.5 -49q-103.5 0 -191.5 51
t-139.5 139t-51.5 191.5t51.5 191.5t139.5 139.5t191.5 51.5t191.5 -51.5t139 -139.5t51 -191.5t-51 -191.5t-139 -139t-191.5 -51zM645 257l-106 78v212q0 14 -10.5 24t-24.5 10t-24 -10t-10 -24v-231q0 -11 7 -20.5t16 -12.5l111 -82q9 -6 21 -6v0v0q14 0 24 10t10 24
q0 18 -14 28zM679 789l102 -57q8 -4 17 -4q8 0 17 5t13 13t4 17q0 8 -5 17t-13 13l-102 56q-8 4 -16 4q-15 0 -25 -10t-10 -24q0 -8 5 -17t13 -13z" />
    <glyph glyph-name="biaoqian" unicode="&#xe651;" 
d="M77 885v-1003l430 183l455 -183v1003h-885z" />
    <glyph glyph-name="cu-" unicode="&#xe655;" 
d="M518 605h197v-107h-197v107zM852 882h-666q-69 0 -117 -48t-48 -117v-666q0 -69 48 -117t117 -48h666q69 0 117 48t48 117v666q0 69 -48 117t-117 48zM824 79h-120q-78 0 -131.5 21t-90.5 76q-25 -69 -65 -113q-27 26 -65 47v-46h-81v343q-21 -31 -42 -55q-14 46 -40 88
q42 48 78 118.5t58 146.5l76 -22q-24 -73 -49 -127v-446q76 74 93 265l78 -8q-5 -48 -14 -95q24 -61 71 -90v245h-140v250h358v-250h-135v-81h145v-77h-145v-112q23 -3 47 -3q107 0 138 1q-17 -30 -24 -76z" />
    <glyph glyph-name="ku-" unicode="&#xe658;" 
d="M924 864h-824v0q-22 0 -37.5 -15.5t-15.5 -37.5v-822q0 -22 15.5 -37.5t37.5 -15.5v0h824v0q22 0 37.5 15.5t15.5 37.5v822q0 22 -15.5 37.5t-37.5 15.5v0zM833 479h-290l-33 -88h62v69h118v-69h143v-65h-143v-87h143v-66h-143l-1 -75q2 -27 -13 -41q-6 -6 -16 -9t-17 -4
h-6h-66v52v77h-220v66h220l1 87h-222l67 153h-76l-20 -382q2 -27 -13 -39q-6 -6 -16 -9.5t-17 -4.5h-6h-21h-39v0h-42v50h38l42 564q-63 29 -18 98q20 -29 38 -38.5t62 -8.5h105v-1h69l5 46h59q29 0 38 -17q5 -8 6 -29h162q39 0 52 -16q5 -6 7 -18.5t2 -21.5l-1 -10h-483
l-5 -98h99l25 55h118l-20 -55h266v-65v0z" />
  </font>
</defs>
</svg>
